<svg width="356" height="96" viewBox="0 0 356 96" fill="none" xmlns="http://www.w3.org/2000/svg">
<rect x="102" y="32" width="32" height="32" fill="white"/>
<path d="M112.766 53V43.2H115.02L118.016 49.318L120.984 43.2H123.238V53H121.348V46.42L118.758 51.628H117.26L114.656 46.42V53H112.766Z" fill="#083256"/>
<rect x="32" y="32" width="32" height="32" fill="white"/>
<path d="M44.6662 53V43.2H48.3342C49.1275 43.2 49.7855 43.3353 50.3082 43.606C50.8309 43.8767 51.2182 44.2407 51.4702 44.698C51.7222 45.1553 51.8482 45.678 51.8482 46.266C51.8482 46.8073 51.7269 47.3067 51.4842 47.764C51.2415 48.2213 50.8589 48.5947 50.3362 48.884C49.8135 49.164 49.1462 49.304 48.3342 49.304H46.5562V53H44.6662ZM46.5562 47.778H48.2222C48.8289 47.778 49.2629 47.6427 49.5242 47.372C49.7949 47.092 49.9302 46.7233 49.9302 46.266C49.9302 45.7807 49.7949 45.4073 49.5242 45.146C49.2629 44.8753 48.8289 44.74 48.2222 44.74H46.5562V47.778Z" fill="#083256"/>
<rect x="67" y="32" width="32" height="32" fill="white"/>
<path d="M85.1429 53V43.2H87.0329V53H85.1429ZM78.9689 53V43.2H80.8589V53H78.9689ZM80.5929 48.758V47.232H85.4649V48.758H80.5929Z" fill="#083256"/>
<line x1="148.75" y1="32" x2="148.75" y2="64" stroke="#B59B54" stroke-width="1.5"/>
<path d="M162.78 47V40H164.76C165.587 40 166.263 40.14 166.79 40.42C167.323 40.7 167.717 41.1033 167.97 41.63C168.23 42.1567 168.36 42.7867 168.36 43.52C168.36 44.24 168.23 44.86 167.97 45.38C167.717 45.9 167.323 46.3 166.79 46.58C166.263 46.86 165.587 47 164.76 47H162.78ZM163.48 46.42H164.76C165.467 46.42 166.03 46.3033 166.45 46.07C166.87 45.8367 167.173 45.5033 167.36 45.07C167.547 44.6367 167.64 44.12 167.64 43.52C167.64 42.9133 167.547 42.39 167.36 41.95C167.173 41.51 166.87 41.1733 166.45 40.94C166.03 40.7 165.467 40.58 164.76 40.58H163.48V46.42ZM171.426 47V40H172.126V47H171.426ZM175.482 47V40H179.732V40.58H176.182V43.19H179.432V43.77H176.182V46.42H179.732V47H175.482Z" fill="#8BA4BD"/>
<path d="M162.852 58V49.6H168.216V50.764H164.292V53.224H167.496V54.364H164.292V58H162.852ZM172.09 58V49.6H173.53V58H172.09ZM177.859 58V49.6H179.299L183.343 55.672V49.6H184.783V58H183.343L179.299 51.94V58H177.859ZM188.56 58L191.632 49.6H193.24L196.312 58H194.788L192.424 51.28L190.06 58H188.56ZM189.928 56.02L190.312 54.88H194.452L194.836 56.02H189.928ZM200.107 58V49.6H201.547L205.591 55.672V49.6H207.031V58H205.591L201.547 51.94V58H200.107ZM211.085 58V56.896L215.045 50.812H211.109V49.6H216.713V50.704L212.729 56.788H216.737V58H211.085ZM220.809 58V49.6H222.513L225.201 55.024L227.865 49.6H229.581V58H228.141V52.072L225.765 56.824H224.637L222.249 52.084V58H220.809ZM233.374 58L236.446 49.6H238.054L241.126 58H239.602L237.238 51.28L234.874 58H233.374ZM234.742 56.02L235.126 54.88H239.266L239.65 56.02H234.742ZM244.921 58V49.6H246.361L250.405 55.672V49.6H251.845V58H250.405L246.361 51.94V58H244.921ZM259.355 58.144C258.747 58.144 258.195 58.024 257.699 57.784C257.211 57.544 256.819 57.176 256.523 56.68C256.235 56.184 256.091 55.56 256.091 54.808V49.6H257.531V54.82C257.531 55.276 257.607 55.652 257.759 55.948C257.911 56.244 258.123 56.468 258.395 56.62C258.675 56.764 259.003 56.836 259.379 56.836C259.763 56.836 260.091 56.764 260.363 56.62C260.643 56.468 260.855 56.244 260.999 55.948C261.151 55.652 261.227 55.276 261.227 54.82V49.6H262.667V54.808C262.667 55.56 262.519 56.184 262.223 56.68C261.927 57.176 261.527 57.544 261.023 57.784C260.519 58.024 259.963 58.144 259.355 58.144ZM266.924 58V49.6H272.288V50.764H268.364V53.224H271.568V54.364H268.364V58H266.924ZM274.707 58L277.779 49.6H279.387L282.459 58H280.935L278.571 51.28L276.207 58H274.707ZM276.075 56.02L276.459 54.88H280.599L280.983 56.02H276.075ZM286.255 58V49.6H287.695V53.068L290.863 49.6H292.651L289.543 52.936L292.723 58H290.971L288.523 54.04L287.695 54.94V58H286.255ZM298.444 58V50.764H295.972V49.6H302.344V50.764H299.872V58H298.444ZM309.351 58.144C308.743 58.144 308.191 58.024 307.695 57.784C307.207 57.544 306.815 57.176 306.519 56.68C306.231 56.184 306.087 55.56 306.087 54.808V49.6H307.527V54.82C307.527 55.276 307.603 55.652 307.755 55.948C307.907 56.244 308.119 56.468 308.391 56.62C308.671 56.764 308.999 56.836 309.375 56.836C309.759 56.836 310.087 56.764 310.359 56.62C310.639 56.468 310.851 56.244 310.995 55.948C311.147 55.652 311.223 55.276 311.223 54.82V49.6H312.663V54.808C312.663 55.56 312.515 56.184 312.219 56.68C311.923 57.176 311.523 57.544 311.019 57.784C310.515 58.024 309.959 58.144 309.351 58.144ZM316.921 58V49.6H319.933C320.597 49.6 321.145 49.716 321.577 49.948C322.017 50.172 322.341 50.476 322.549 50.86C322.765 51.236 322.873 51.664 322.873 52.144C322.873 52.592 322.769 53.008 322.561 53.392C322.353 53.776 322.029 54.084 321.589 54.316C321.149 54.548 320.585 54.664 319.897 54.664H318.361V58H316.921ZM321.301 58L319.537 54.292H321.097L322.945 58H321.301ZM318.361 53.596H319.837C320.373 53.596 320.765 53.468 321.013 53.212C321.269 52.948 321.397 52.604 321.397 52.18C321.397 51.764 321.273 51.432 321.025 51.184C320.777 50.928 320.381 50.8 319.837 50.8H318.361V53.596Z" fill="white"/>
</svg>